<svg width="20" height="20" viewBox="0 0 20 20"  xmlns="http://www.w3.org/2000/svg">
<path d="M10.8334 11.25C10.1703 11.25 9.53443 11.5134 9.06559 11.9822C8.59675 12.4511 8.33335 13.087 8.33335 13.75C8.33335 14.413 8.59675 15.0489 9.06559 15.5178C9.53443 15.9866 10.1703 16.25 10.8334 16.25C11.4964 16.25 12.1323 15.9866 12.6011 15.5178C13.07 15.0489 13.3334 14.413 13.3334 13.75C13.3334 13.087 13.07 12.4511 12.6011 11.9822C12.1323 11.5134 11.4964 11.25 10.8334 11.25ZM10.8334 17.9167C9.72829 17.9167 8.66848 17.4777 7.88708 16.6963C7.10567 15.9149 6.66669 14.8551 6.66669 13.75C6.66669 12.6449 7.10567 11.5851 7.88708 10.8037C8.66848 10.0223 9.72829 9.58333 10.8334 9.58333C11.9384 9.58333 12.9982 10.0223 13.7796 10.8037C14.561 11.5851 15 12.6449 15 13.75C15 14.8551 14.561 15.9149 13.7796 16.6963C12.9982 17.4777 11.9384 17.9167 10.8334 17.9167ZM10.8334 7.5C6.66669 7.5 3.10835 10.0917 1.66669 13.75C3.10835 17.4083 6.66669 20 10.8334 20C15 20 18.5584 17.4083 20 13.75C18.5584 10.0917 15 7.5 10.8334 7.5Z" fill="black"/>
</svg>
